Coordinates
version=1
nRows=11
nColumns=36
inDegrees=yes

Units are S.I. units (second, meters, Newtons, ...)
If the header above contains a line with 'inDegrees', this indicates whether rotational values are in degrees (yes) or radians (no).

endheader
time	pelvis_tilt	pelvis_list	pelvis_rotation	pelvis_tx	pelvis_ty	pelvis_tz	hip_flexion_r	hip_adduction_r	hip_rotation_r	knee_angle_r	knee_angle_r_beta	ankle_angle_r	subtalar_angle_r	mtp_angle_r	hip_flexion_l	hip_adduction_l	hip_rotation_l	knee_angle_l	knee_angle_l_beta	ankle_angle_l	subtalar_angle_l	mtp_angle_l	lumbar_extension	lumbar_bending	lumbar_rotation	arm_flex_r	arm_add_r	arm_rot_r	elbow_flex_r	pro_sup_r	arm_flex_l	arm_add_l	arm_rot_l	elbow_flex_l	pro_sup_l
      0.00000000	      0.72750603	     -1.28249984	     -1.47940167	     -0.98158523	      1.26197189	     -0.09252148	      3.54060596	      0.62401080	      4.86613190	     13.99589517	      0.24427445	      3.80987814	    -16.45038569	     -6.20477326	      0.61164897	     -1.48525459	      5.29162564	      7.88306865	      0.13758550	     10.13592940	     -4.63566834	     -6.20477326	    -14.86533329	      4.50588826	     -0.31924897	      7.18313714	     -6.96442739	     25.40632384	     19.41518398	     67.82526241	      5.44480505	     -2.63558920	     25.74390751	     22.50195867	     63.58439423
      0.00166670	      1.51066989	     -1.17551032	     -1.81865794	     -0.98278429	      1.26276786	     -0.09248538	      2.80024133	      0.72113875	      5.42468483	     14.23215008	      0.24839788	      6.52585477	    -16.31324181	     -6.54048029	     -0.70834625	     -0.98885825	      8.01041129	      7.06377598	      0.12328615	      8.95910187	     -7.10017768	     -6.54048029	    -15.72630981	      4.82026070	     -0.65222798	      7.60101659	     -6.22851237	     27.00676850	     17.21963796	     70.83706352	      5.33086957	     -2.36938243	     25.76862924	     22.86617585	     65.28526064
      0.00333330	      1.08220808	     -0.62957710	     -2.29494631	     -0.98320876	      1.25596752	     -0.09135628	      3.25380380	      0.11210451	      5.24807225	     13.85013698	      0.24173049	      6.97946647	    -17.09459191	     -6.63152114	     -0.64979269	     -0.41323478	      8.90655228	      6.36244625	      0.11104564	      8.99311099	     -7.80118259	     -6.63152114	    -15.44397760	      4.00646098	     -0.33978734	      7.09427524	     -5.54794180	     25.24645581	     17.06488374	     71.46149939	      5.32060824	     -2.48369502	     25.28492019	     23.19748569	     66.21874645
      0.00500000	      1.90514120	     -0.56740984	     -2.34947856	     -0.98423710	      1.25820958	     -0.09118714	      2.17501258	      0.03301893	      5.64949729	     13.35996678	      0.23317541	      6.98638328	    -17.52445821	     -6.69660363	     -2.07779901	     -0.32378501	      9.94064338	      5.20272295	      0.09080465	      8.88305759	     -8.09991742	     -6.69660363	    -16.43843549	      3.74351608	     -0.19876561	      6.72977003	     -4.96195861	     24.34445920	     16.71362838	     71.54336598	      5.70039238	     -2.24617728	     24.83552348	     22.83075042	     66.46707330
      0.00666670	      2.49407367	     -0.62102876	     -2.33611669	     -0.98476081	      1.25952872	     -0.09136858	      1.28593358	      0.09206514	      5.85930781	     12.91662338	      0.22543761	      6.81170386	    -18.00108121	     -7.09755346	     -3.03613147	     -0.43888025	     10.66882530	      4.34324883	      0.07580399	      8.67017515	     -8.63380876	     -7.09755346	    -17.38199428	      3.68036921	      0.17842181	      5.51240859	     -3.91200623	     11.83537796	     18.47592249	     87.35233108	      5.79463463	     -1.63451789	     20.58241772	     22.96842914	     77.18032320
      0.00833330	      3.41172920	     -0.67345819	     -2.30316759	     -0.98556071	      1.26738643	     -0.09180849	      0.01424840	      0.13177009	      6.03382166	     12.39820250	      0.21638945	      6.50215893	    -18.29529877	     -7.10997556	     -4.29582111	     -0.48373301	     11.23778443	      3.80443774	      0.06639996	      8.23931583	     -9.02001055	     -7.10997556	    -18.56225980	      3.61153175	      0.23463223	      5.70596508	     -3.47798777	     10.87064529	     18.27733101	     87.36204255	      6.10862928	     -1.28496858	     19.43696246	     22.67038071	     77.00013215
      0.01000000	      4.04581082	     -0.78129585	     -2.19793465	     -0.98606068	      1.26421921	     -0.09174782	     -0.82138672	      0.21798871	      6.28851200	     12.04645104	      0.21025023	      6.29728068	    -18.76229593	     -7.18038423	     -5.07816987	     -0.63536994	     11.50794387	      3.62819343	      0.06332392	      8.10997602	     -9.50968213	     -7.18038423	    -19.45792297	      3.62787108	      0.25456561	      5.62680471	     -2.76846662	      6.41126485	     18.81277787	     88.88561079	      5.98304812	     -0.74782917	     15.33795484	     23.08058550	     77.36892190
      0.01166670	      4.74149244	     -0.91978884	     -2.16212721	     -0.98672554	      1.26825606	     -0.09198004	     -1.66531687	      0.30264474	      6.35427573	     11.81534786	      0.20621672	      5.94172029	    -18.95187922	     -7.22650567	     -5.95536624	     -0.75888075	     11.87133588	      3.40537693	      0.05943504	      7.92752176	     -9.85849250	     -7.22650567	    -20.42102138	      3.71541482	      0.34810432	      5.99630757	     -2.63558614	      6.08289691	     18.97729932	     87.26485004	      6.31642619	     -0.46991653	     14.88827370	     23.10393915	     76.06599767
      0.01333330	      5.26109581	     -1.07505869	     -2.19129299	     -0.98715262	      1.26536202	     -0.09179040	     -2.24529671	      0.46266804	      6.66131352	     11.72992564	      0.20472582	      5.59940720	    -19.35079628	     -7.23131198	     -6.58377380	     -0.90381651	     12.18248238	      3.33064774	      0.05813077	      7.73095829	    -10.39461010	     -7.23131198	    -21.07160499	      3.76253495	      0.46973485	      6.26853516	     -2.55791464	      5.50606461	     19.17621250	     88.21775068	      6.32603233	     -0.33981132	     13.97833339	     23.41006705	     76.65171353
      0.01500000	      5.56280496	     -1.16821609	     -2.11078129	     -0.98748023	      1.26543261	     -0.09177346	     -2.58087170	      0.57240582	      6.79944530	     11.70341624	      0.20426315	      5.25872939	    -19.83637854	     -7.24482843	     -6.93526100	     -1.00862167	     12.47391498	      3.27037894	      0.05707888	      7.65023773	    -10.61602776	     -7.24482843	    -21.33173481	      3.77474506	      0.48553230	      6.35900241	     -2.40759877	      5.38436072	     19.09964484	     88.09559772	      6.44917155	     -0.19173573	     13.62254766	     23.26168108	     76.42351713
      0.01666670	      5.80256462	     -1.21145312	     -2.22806740	     -0.98770051	      1.26251247	     -0.09161350	     -2.79650247	      0.63907970	      7.12805440	     11.70398071	      0.20427300	      4.93286077	    -20.60382593	     -7.32372216	     -7.20426724	     -1.03310324	     12.70237125	      3.28920961	      0.05740754	      7.59893171	    -11.05829693	     -7.32372216	    -21.62604219	      3.70255256	      0.52708622	      6.51480508	     -2.19974503	      3.59388958	     19.09992408	     93.82496007	      6.29419153	     -0.00220178	     11.37840852	     23.42501232	     80.55100705
